<svg width="188" height="636" xmlns="http://www.w3.org/2000/svg" xmlns:xlink="http://www.w3.org/1999/xlink" xml:space="preserve" overflow="hidden"><g><g><g><g><g><path d="M34.4344 498.677 178.81 498.677 178.81 598.661 34.4344 598.661Z" stroke="#999999" stroke-width="0.829746" stroke-linecap="butt" stroke-linejoin="miter" stroke-miterlimit="4" stroke-opacity="1" fill="#EEEEEE" fill-rule="nonzero" fill-opacity="1" transform="matrix(1.00165 0 0 1 0.207778 0.207436)"/><text fill="#000000" fill-opacity="1" font-family="Helvetica,Helvetica_MSFontService,sans-serif" font-style="normal" font-variant="normal" font-weight="400" font-stretch="normal" font-size="12" text-anchor="start" direction="ltr" writing-mode="lr-tb" unicode-bidi="normal" text-decoration="none" transform="matrix(0.415556 0 0 0.414873 67.8528 507)">Fase 4: Pengujian &amp; Evaluasi Akhir</text><path d="M38.1683 371.726 175.076 371.726 175.076 477.933 38.1683 477.933Z" stroke="#999999" stroke-width="0.829746" stroke-linecap="butt" stroke-linejoin="miter" stroke-miterlimit="4" stroke-opacity="1" fill="#EEEEEE" fill-rule="nonzero" fill-opacity="1" transform="matrix(1.00165 0 0 1 0.207778 0.207436)"/><text fill="#000000" fill-opacity="1" font-family="Helvetica,Helvetica_MSFontService,sans-serif" font-style="normal" font-variant="normal" font-weight="400" font-stretch="normal" font-size="12" text-anchor="start" direction="ltr" writing-mode="lr-tb" unicode-bidi="normal" text-decoration="none" transform="matrix(0.415556 0 0 0.414873 63.6977 380)">Fase 3: Implementasi Perangkat Keras</text><path d="M0.414873 164.29 186.278 164.29 186.278 350.982 0.414873 350.982Z" stroke="#999999" stroke-width="0.829746" stroke-linecap="butt" stroke-linejoin="miter" stroke-miterlimit="4" stroke-opacity="1" fill="#EEEEEE" fill-rule="nonzero" fill-opacity="1" transform="matrix(1.00165 0 0 1 0.207778 0.207436)"/><text fill="#000000" fill-opacity="1" font-family="Helvetica,Helvetica_MSFontService,sans-serif" font-style="normal" font-variant="normal" font-weight="400" font-stretch="normal" font-size="12" text-anchor="start" direction="ltr" writing-mode="lr-tb" unicode-bidi="normal" text-decoration="none" transform="matrix(0.415556 0 0 0.414873 52.3393 172)">Fase 2: Validasi Virtual &amp; Prototyping</text><path d="M26.137 37.3386 183.374 37.3386 183.374 143.546 26.137 143.546Z" stroke="#999999" stroke-width="0.829746" stroke-linecap="butt" stroke-linejoin="miter" stroke-miterlimit="4" stroke-opacity="1" fill="#EEEEEE" fill-rule="nonzero" fill-opacity="1" transform="matrix(1.00165 0 0 1 0.207778 0.207436)"/><text fill="#000000" fill-opacity="1" font-family="Helvetica,Helvetica_MSFontService,sans-serif" font-style="normal" font-variant="normal" font-weight="400" font-stretch="normal" font-size="12" text-anchor="start" direction="ltr" writing-mode="lr-tb" unicode-bidi="normal" text-decoration="none" transform="matrix(0.415556 0 0 0.414873 63.4193 45)">Fase 1: Karakterisasi &amp; Perancangan</text><path d="M111.808 0.414873C116.276 0.414873 119.898 4.0369 119.898 8.50489L119.898 8.50489C119.898 12.9729 116.276 16.5949 111.808 16.5949L101.436 16.5949C96.9684 16.5949 93.3464 12.9729 93.3464 8.50489 93.3464 4.0369 96.9684 0.414873 101.436 0.414873Z" stroke="#999999" stroke-width="0.829746" stroke-linecap="butt" stroke-linejoin="miter" stroke-miterlimit="4" stroke-opacity="1" fill="#EEEEEE" fill-rule="nonzero" fill-opacity="1" transform="matrix(1.00165 0 0 1 0.207778 0.207436)"/><text fill="#000000" fill-opacity="1" font-family="Helvetica,Helvetica_MSFontService,sans-serif" font-style="normal" font-variant="normal" font-weight="400" font-stretch="normal" font-size="12" text-anchor="start" direction="ltr" writing-mode="lr-tb" unicode-bidi="normal" text-decoration="none" transform="matrix(0.415556 0 0 0.414873 100.84 10)">Mulai</text><path d="M114.297 619.405C118.765 619.405 122.387 623.027 122.387 627.495L122.387 627.495C122.387 631.963 118.765 635.585 114.297 635.585L98.9472 635.585C94.4792 635.585 90.8571 631.963 90.8571 627.495 90.8571 623.027 94.4792 619.405 98.9472 619.405Z" stroke="#999999" stroke-width="0.829746" stroke-linecap="butt" stroke-linejoin="miter" stroke-miterlimit="4" stroke-opacity="1" fill="#EEEEEE" fill-rule="nonzero" fill-opacity="1" transform="matrix(1.00165 0 0 1 0.207778 0.207436)"/><text fill="#000000" fill-opacity="1" font-family="Helvetica,Helvetica_MSFontService,sans-serif" font-style="normal" font-variant="normal" font-weight="400" font-stretch="normal" font-size="12" text-anchor="start" direction="ltr" writing-mode="lr-tb" unicode-bidi="normal" text-decoration="none" transform="matrix(0.415556 0 0 0.414873 98.6202 629)">Selesai</text><path d="M52.6888 47.7104 160.556 47.7104 160.556 80.0704 52.6888 80.0704Z" stroke="#999999" stroke-width="0.829746" stroke-linecap="butt" stroke-linejoin="miter" stroke-miterlimit="4" stroke-opacity="1" fill="#EEEEEE" fill-rule="nonzero" fill-opacity="1" transform="matrix(1.00165 0 0 1 0.207778 0.207436)"/><text fill="#000000" fill-opacity="1" font-family="Helvetica,Helvetica_MSFontService,sans-serif" font-style="normal" font-variant="normal" font-weight="400" font-stretch="normal" font-size="12" text-anchor="start" direction="ltr" writing-mode="lr-tb" unicode-bidi="normal" text-decoration="none" transform="matrix(0.415556 0 0 0.414873 69.8032 66)">1. Ekstraksi Parameter Transistor</text><path d="M52.6888 100.814 160.556 100.814 160.556 133.174 52.6888 133.174Z" stroke="#999999" stroke-width="0.829746" stroke-linecap="butt" stroke-linejoin="miter" stroke-miterlimit="4" stroke-opacity="1" fill="#EEEEEE" fill-rule="nonzero" fill-opacity="1" transform="matrix(1.00165 0 0 1 0.207778 0.207436)"/><text fill="#000000" fill-opacity="1" font-family="Helvetica,Helvetica_MSFontService,sans-serif" font-style="normal" font-variant="normal" font-weight="400" font-stretch="normal" font-size="12" text-anchor="start" direction="ltr" writing-mode="lr-tb" unicode-bidi="normal" text-decoration="none" transform="matrix(0.415556 0 0 0.414873 61.4722 119)">2. Perhitungan Teoritis &amp; Penetapan E24</text><path d="M14.9354 174.661 122.387 174.661 122.387 197.065 14.9354 197.065Z" stroke="#999999" stroke-width="0.829746" stroke-linecap="butt" stroke-linejoin="miter" stroke-miterlimit="4" stroke-opacity="1" fill="#EEEEEE" fill-rule="nonzero" fill-opacity="1" transform="matrix(1.00165 0 0 1 0.207778 0.207436)"/><text fill="#000000" fill-opacity="1" font-family="Helvetica,Helvetica_MSFontService,sans-serif" font-style="normal" font-variant="normal" font-weight="400" font-stretch="normal" font-size="12" text-anchor="start" direction="ltr" writing-mode="lr-tb" unicode-bidi="normal" text-decoration="none" transform="matrix(0.415556 0 0 0.414873 35.5836 188)">3. Simulasi Rangkaian SPICE</text><path d="M106.622 217.808 141.472 252.658 106.622 287.507 71.773 252.658Z" stroke="#999999" stroke-width="0.829746" stroke-linecap="butt" stroke-linejoin="miter" stroke-miterlimit="10" stroke-opacity="1" fill="#EEEEEE" fill-rule="nonzero" fill-opacity="1" transform="matrix(1.00165 0 0 1 0.207778 0.207436)"/><text fill="#000000" fill-opacity="1" font-family="Helvetica,Helvetica_MSFontService,sans-serif" font-style="normal" font-variant="normal" font-weight="400" font-stretch="normal" font-size="12" text-anchor="start" direction="ltr" writing-mode="lr-tb" unicode-bidi="normal" text-decoration="none" transform="matrix(0.415556 0 0 0.414873 83.0989 254)">Sesuai Spesifikasi?...</text><path d="M55.1781 318.207 158.481 318.207 158.481 340.611 55.1781 340.611Z" stroke="#999999" stroke-width="0.829746" stroke-linecap="butt" stroke-linejoin="miter" stroke-miterlimit="4" stroke-opacity="1" fill="#EEEEEE" fill-rule="nonzero" fill-opacity="1" transform="matrix(1.00165 0 0 1 0.207778 0.207436)"/><text fill="#000000" fill-opacity="1" font-family="Helvetica,Helvetica_MSFontService,sans-serif" font-style="normal" font-variant="normal" font-weight="400" font-stretch="normal" font-size="12" text-anchor="start" direction="ltr" writing-mode="lr-tb" unicode-bidi="normal" text-decoration="none" transform="matrix(0.415556 0 0 0.414873 77.6898 331)">4. Prototyping Breadboard</text><path d="M52.6888 382.098 160.556 382.098 160.556 414.458 52.6888 414.458Z" stroke="#999999" stroke-width="0.829746" stroke-linecap="butt" stroke-linejoin="miter" stroke-miterlimit="4" stroke-opacity="1" fill="#EEEEEE" fill-rule="nonzero" fill-opacity="1" transform="matrix(1.00165 0 0 1 0.207778 0.207436)"/><text fill="#000000" fill-opacity="1" font-family="Helvetica,Helvetica_MSFontService,sans-serif" font-style="normal" font-variant="normal" font-weight="400" font-stretch="normal" font-size="12" text-anchor="start" direction="ltr" writing-mode="lr-tb" unicode-bidi="normal" text-decoration="none" transform="matrix(0.415556 0 0 0.414873 68.9644 400)">5. Desain Skematik &amp; Layout PCB</text><path d="M52.6888 435.202 160.556 435.202 160.556 467.562 52.6888 467.562Z" stroke="#999999" stroke-width="0.829746" stroke-linecap="butt" stroke-linejoin="miter" stroke-miterlimit="4" stroke-opacity="1" fill="#EEEEEE" fill-rule="nonzero" fill-opacity="1" transform="matrix(1.00165 0 0 1 0.207778 0.207436)"/><text fill="#000000" fill-opacity="1" font-family="Helvetica,Helvetica_MSFontService,sans-serif" font-style="normal" font-variant="normal" font-weight="400" font-stretch="normal" font-size="12" text-anchor="start" direction="ltr" writing-mode="lr-tb" unicode-bidi="normal" text-decoration="none" transform="matrix(0.415556 0 0 0.414873 67.5765 453)">6. Fabrikasi &amp; Perakitan Komponen</text><path d="M52.6888 509.049 160.556 509.049 160.556 541.409 52.6888 541.409Z" stroke="#999999" stroke-width="0.829746" stroke-linecap="butt" stroke-linejoin="miter" stroke-miterlimit="4" stroke-opacity="1" fill="#EEEEEE" fill-rule="nonzero" fill-opacity="1" transform="matrix(1.00165 0 0 1 0.207778 0.207436)"/><text fill="#000000" fill-opacity="1" font-family="Helvetica,Helvetica_MSFontService,sans-serif" font-style="normal" font-variant="normal" font-weight="400" font-stretch="normal" font-size="12" text-anchor="start" direction="ltr" writing-mode="lr-tb" unicode-bidi="normal" text-decoration="none" transform="matrix(0.415556 0 0 0.414873 59.1225 527)">7. Pengujian Kinerja Hardware Terintegrasi</text><path d="M48.955 588.29 57.2524 562.153 164.29 562.153 155.992 588.29Z" stroke="#999999" stroke-width="0.829746" stroke-linecap="butt" stroke-linejoin="miter" stroke-miterlimit="10" stroke-opacity="1" fill="#EEEEEE" fill-rule="nonzero" fill-opacity="1" transform="matrix(1.00165 0 0 1 0.207778 0.207436)"/><text fill="#000000" fill-opacity="1" font-family="Helvetica,Helvetica_MSFontService,sans-serif" font-style="normal" font-variant="normal" font-weight="400" font-stretch="normal" font-size="12" text-anchor="start" direction="ltr" writing-mode="lr-tb" unicode-bidi="normal" text-decoration="none" transform="matrix(0.415556 0 0 0.414873 55.9304 577)">8. Analisis Komparatif &amp; Penyusunan Laporan</text><path d="M106.888 16.5949C106.888 16.5949 106.809 25.8438 106.651 44.3416" stroke="#000000" stroke-width="0.414873" stroke-linecap="butt" stroke-linejoin="miter" stroke-miterlimit="10" stroke-opacity="1" fill="none" fill-rule="nonzero" transform="matrix(1.00165 0 0 1 0.207778 0.207436)"/><path d="M106.626 47.2457 105.199 44.3292 108.103 44.3541Z" stroke="#000000" stroke-width="0.414873" stroke-linecap="butt" stroke-linejoin="miter" stroke-miterlimit="10" stroke-opacity="1" fill="#000000" fill-rule="nonzero" fill-opacity="1" transform="matrix(1.00165 0 0 1 0.207778 0.207436)"/><path d="M106.622 80.0704C106.622 80.0704 106.622 85.8621 106.622 97.4453" stroke="#000000" stroke-width="0.414873" stroke-linecap="butt" stroke-linejoin="miter" stroke-miterlimit="10" stroke-opacity="1" fill="none" fill-rule="nonzero" transform="matrix(1.00165 0 0 1 0.207778 0.207436)"/><path d="M106.622 100.349 105.17 97.4453 108.074 97.4453Z" stroke="#000000" stroke-width="0.414873" stroke-linecap="butt" stroke-linejoin="miter" stroke-miterlimit="10" stroke-opacity="1" fill="#000000" fill-rule="nonzero" fill-opacity="1" transform="matrix(1.00165 0 0 1 0.207778 0.207436)"/><path d="M83.9703 133.174C73.9025 140.089 68.8067 152.795 68.6822 171.293" stroke="#000000" stroke-width="0.414873" stroke-linecap="butt" stroke-linejoin="miter" stroke-miterlimit="10" stroke-opacity="1" fill="none" fill-rule="nonzero" transform="matrix(1.00165 0 0 1 0.207778 0.207436)"/><path d="M68.6656 174.197 67.2301 171.284 70.1342 171.305Z" stroke="#000000" stroke-width="0.414873" stroke-linecap="butt" stroke-linejoin="miter" stroke-miterlimit="10" stroke-opacity="1" fill="#000000" fill-rule="nonzero" fill-opacity="1" transform="matrix(1.00165 0 0 1 0.207778 0.207436)"/><path d="M68.6614 197.065C68.7996 203.979 75.4322 215.333 88.5587 231.126" stroke="#000000" stroke-width="0.414873" stroke-linecap="butt" stroke-linejoin="miter" stroke-miterlimit="10" stroke-opacity="1" fill="none" fill-rule="nonzero" transform="matrix(1.00165 0 0 1 0.207778 0.207436)"/><path d="M90.4174 233.362 87.4427 232.055 89.6748 230.2Z" stroke="#000000" stroke-width="0.414873" stroke-linecap="butt" stroke-linejoin="miter" stroke-miterlimit="10" stroke-opacity="1" fill="#000000" fill-rule="nonzero" fill-opacity="1" transform="matrix(1.00165 0 0 1 0.207778 0.207436)"/><path d="M122.533 233.719C137.371 216.197 144.791 196.788 144.791 175.491 144.791 154.195 140.89 140.744 133.087 135.141" stroke="#000000" stroke-width="0.414873" stroke-linecap="butt" stroke-linejoin="miter" stroke-miterlimit="10" stroke-opacity="1" fill="none" fill-rule="nonzero" transform="matrix(1.00165 0 0 1 0.207778 0.207436)"/><path d="M130.731 133.444 133.938 133.958 132.241 136.319Z" stroke="#000000" stroke-width="0.414873" stroke-linecap="butt" stroke-linejoin="miter" stroke-miterlimit="10" stroke-opacity="1" fill="#000000" fill-rule="nonzero" fill-opacity="1" transform="matrix(1.00165 0 0 1 0.207778 0.207436)"/><path d="M138.982 181.299 151.014 181.299 151.014 187.108 138.982 187.108Z" fill="#FFFFFF" fill-rule="nonzero" fill-opacity="1" transform="scale(1.00165 1)"/><text fill="#000000" fill-opacity="1" font-family="Helvetica,Helvetica_MSFontService,sans-serif" font-style="normal" font-variant="normal" font-weight="400" font-stretch="normal" font-size="11" text-anchor="start" direction="ltr" writing-mode="lr-tb" unicode-bidi="normal" text-decoration="none" transform="matrix(0.415556 0 0 0.414873 139.44 186)">Tidak</text><path d="M106.622 287.507C106.622 287.507 106.685 296.617 106.809 314.839" stroke="#000000" stroke-width="0.414873" stroke-linecap="butt" stroke-linejoin="miter" stroke-miterlimit="10" stroke-opacity="1" fill="none" fill-rule="nonzero" transform="matrix(1.00165 0 0 1 0.207778 0.207436)"/><path d="M106.826 317.743 105.357 314.851 108.261 314.83Z" stroke="#000000" stroke-width="0.414873" stroke-linecap="butt" stroke-linejoin="miter" stroke-miterlimit="10" stroke-opacity="1" fill="#000000" fill-rule="nonzero" fill-opacity="1" transform="matrix(1.00165 0 0 1 0.207778 0.207436)"/><path d="M103.718 300.368 109.941 300.368 109.941 306.176 103.718 306.176Z" fill="#FFFFFF" fill-rule="nonzero" fill-opacity="1" transform="scale(1.00165 1)"/><text fill="#000000" fill-opacity="1" font-family="Helvetica,Helvetica_MSFontService,sans-serif" font-style="normal" font-variant="normal" font-weight="400" font-stretch="normal" font-size="11" text-anchor="start" direction="ltr" writing-mode="lr-tb" unicode-bidi="normal" text-decoration="none" transform="matrix(0.415556 0 0 0.414873 104.106 305)">Ya</text><path d="M106.83 340.611C106.83 340.611 106.766 353.317 106.639 378.729" stroke="#000000" stroke-width="0.414873" stroke-linecap="butt" stroke-linejoin="miter" stroke-miterlimit="10" stroke-opacity="1" fill="none" fill-rule="nonzero" transform="matrix(1.00165 0 0 1 0.207778 0.207436)"/><path d="M106.626 381.633 105.187 378.721 108.091 378.737Z" stroke="#000000" stroke-width="0.414873" stroke-linecap="butt" stroke-linejoin="miter" stroke-miterlimit="10" stroke-opacity="1" fill="#000000" fill-rule="nonzero" fill-opacity="1" transform="matrix(1.00165 0 0 1 0.207778 0.207436)"/><path d="M106.622 414.458C106.622 414.458 106.622 420.25 106.622 431.833" stroke="#000000" stroke-width="0.414873" stroke-linecap="butt" stroke-linejoin="miter" stroke-miterlimit="10" stroke-opacity="1" fill="none" fill-rule="nonzero" transform="matrix(1.00165 0 0 1 0.207778 0.207436)"/><path d="M106.622 434.737 105.17 431.833 108.074 431.833Z" stroke="#000000" stroke-width="0.414873" stroke-linecap="butt" stroke-linejoin="miter" stroke-miterlimit="10" stroke-opacity="1" fill="#000000" fill-rule="nonzero" fill-opacity="1" transform="matrix(1.00165 0 0 1 0.207778 0.207436)"/><path d="M106.622 467.562C106.622 467.562 106.622 480.269 106.622 505.68" stroke="#000000" stroke-width="0.414873" stroke-linecap="butt" stroke-linejoin="miter" stroke-miterlimit="10" stroke-opacity="1" fill="none" fill-rule="nonzero" transform="matrix(1.00165 0 0 1 0.207778 0.207436)"/><path d="M106.622 508.584 105.17 505.68 108.074 505.68Z" stroke="#000000" stroke-width="0.414873" stroke-linecap="butt" stroke-linejoin="miter" stroke-miterlimit="10" stroke-opacity="1" fill="#000000" fill-rule="nonzero" fill-opacity="1" transform="matrix(1.00165 0 0 1 0.207778 0.207436)"/><path d="M106.622 541.409C106.622 541.409 106.622 551.557 106.622 571.852" stroke="#000000" stroke-width="0.414873" stroke-linecap="butt" stroke-linejoin="miter" stroke-miterlimit="10" stroke-opacity="1" fill="none" fill-rule="nonzero" transform="matrix(1.00165 0 0 1 0.207778 0.207436)"/><path d="M106.622 574.756 105.17 571.852 108.074 571.852Z" stroke="#000000" stroke-width="0.414873" stroke-linecap="butt" stroke-linejoin="miter" stroke-miterlimit="10" stroke-opacity="1" fill="#000000" fill-rule="nonzero" fill-opacity="1" transform="matrix(1.00165 0 0 1 0.207778 0.207436)"/><path d="M106.622 588.29C106.622 588.29 106.718 597.537 106.909 616.036" stroke="#000000" stroke-width="0.414873" stroke-linecap="butt" stroke-linejoin="miter" stroke-miterlimit="10" stroke-opacity="1" fill="none" fill-rule="nonzero" transform="matrix(1.00165 0 0 1 0.207778 0.207436)"/><path d="M106.938 618.94 105.457 616.053 108.361 616.024Z" stroke="#000000" stroke-width="0.414873" stroke-linecap="butt" stroke-linejoin="miter" stroke-miterlimit="10" stroke-opacity="1" fill="#000000" fill-rule="nonzero" fill-opacity="1" transform="matrix(1.00165 0 0 1 0.207778 0.207436)"/></g></g></g></g></g></svg>